<svg version="1.1" id="Layer_1" xmlns="http://www.w3.org/2000/svg" xmlns:xlink="http://www.w3.org/1999/xlink" x="0px" y="0px"
	 width="100%" viewBox="0 0 180 164" enable-background="new 0 0 180 164" xml:space="preserve">
<path fill="#181C23" opacity="1.000000" stroke="none" 
	d="
M1.000000,63.000000 
	C1.000000,42.000004 1.000000,21.500010 1.000000,1.000011 
	C60.999981,1.000007 120.999962,1.000007 180.999954,1.000004 
	C180.999969,55.666637 180.999969,110.333275 180.999985,164.999939 
	C121.000046,164.999954 61.000092,164.999954 1.000070,164.999969 
	C1.000000,131.166672 1.000000,97.333336 1.000000,63.000000 
M121.225243,13.912968 
	C119.781334,13.992325 118.337425,14.071682 116.365730,14.180046 
	C118.964005,23.925505 121.613503,33.162506 123.809776,42.506042 
	C124.515251,45.507317 125.845070,46.060535 128.570648,46.102844 
	C131.256592,46.144539 132.387543,45.199368 133.000412,42.662815 
	C134.238098,37.540195 135.769638,32.488571 137.487823,26.298597 
	C139.593719,33.556545 141.378998,39.709473 143.399658,46.673672 
	C146.050644,45.878681 150.075256,45.697506 150.486038,44.385151 
	C153.574753,34.517559 155.951614,24.427151 158.546844,14.422783 
	C153.088058,12.943137 150.157562,13.909506 149.642731,19.740944 
	C149.241791,24.282274 147.697662,28.722677 146.332550,34.632462 
	C144.221024,26.916199 142.458496,20.475330 140.719559,14.120634 
	C138.338165,14.120634 136.378983,14.120634 134.304184,14.120634 
	C132.568756,20.545938 130.877075,26.809246 129.185410,33.072552 
	C127.200821,27.840580 126.229355,22.787651 124.891129,17.833801 
	C124.499733,16.384924 123.064636,15.217994 121.225243,13.912968 
M25.443928,135.595825 
	C25.443928,133.261246 25.443928,130.926666 25.443928,128.592087 
	C29.554472,132.519348 32.639839,136.411514 35.180450,140.631653 
	C37.581776,144.620438 40.554054,146.123642 45.043373,144.492950 
	C45.043373,134.108963 45.043373,123.701836 45.043373,113.316086 
	C42.373787,113.316086 39.987911,113.316086 37.025719,113.316086 
	C37.025719,118.860161 37.025719,124.029053 37.025719,130.588013 
	C33.297638,125.353249 30.185562,121.489876 27.651091,117.278854 
	C25.232166,113.259811 22.207514,111.877228 17.573719,113.475052 
	C17.573719,123.777420 17.573719,134.162430 17.573719,144.722534 
	C20.267012,144.722534 22.656752,144.722534 25.443811,144.722534 
	C25.443811,141.802246 25.443811,139.162537 25.443928,135.595825 
M56.618595,31.959623 
	C56.756565,30.762407 56.894535,29.565189 57.143154,27.407824 
	C60.976501,32.821396 64.462738,37.238750 67.367729,42.009991 
	C69.626358,45.719616 72.368958,46.927399 76.658562,45.540169 
	C76.658562,35.235165 76.658562,24.839264 76.658562,14.205631 
	C74.258545,14.205631 72.048409,14.205631 69.164146,14.205631 
	C69.164146,20.147108 69.164146,25.798363 69.164146,32.812931 
	C65.022781,27.001553 61.487415,22.607563 58.607391,17.819393 
	C56.310856,14.001307 53.533218,13.047788 49.341015,14.465528 
	C49.341015,24.844498 49.341015,35.235565 49.341015,45.641747 
	C51.825397,45.641747 54.027245,45.641747 56.617947,45.641747 
	C56.617947,41.133499 56.617947,36.994904 56.618595,31.959623 
M68.225357,112.148407 
	C65.934319,112.429565 63.557991,112.415070 61.368073,113.046776 
	C54.527981,115.019867 50.759258,121.298492 51.022125,129.820312 
	C51.273392,137.966293 55.460533,143.557617 62.538578,145.198853 
	C71.868950,147.362335 80.148148,142.880066 81.912643,134.424042 
	C84.287163,123.044548 79.897057,113.541656 68.225357,112.148407 
M76.985214,80.294670 
	C76.926155,70.806313 73.847450,65.366287 67.226936,63.051964 
	C58.141273,59.875904 49.242245,64.182899 46.593735,73.038124 
	C43.419308,83.651772 48.278297,93.301537 57.853809,95.400162 
	C67.881561,97.597916 75.185440,92.154419 76.985214,80.294670 
M108.568855,43.146019 
	C117.215645,33.679195 114.929237,18.161964 104.298409,14.163650 
	C97.124008,11.465317 88.967224,13.817107 85.234787,19.660143 
	C81.168076,26.026451 82.021896,37.430775 86.944008,42.489948 
	C92.068253,47.756886 100.590637,48.226555 108.568855,43.146019 
M159.083954,112.162323 
	C156.789810,112.394356 154.422546,112.343987 152.216278,112.915344 
	C147.122528,114.234459 144.109314,117.847275 144.240768,122.422890 
	C144.385437,127.458496 147.439606,130.214203 152.068069,131.447617 
	C154.307281,132.044342 156.693390,132.245239 158.797562,133.134888 
	C160.058731,133.668121 160.903915,135.185211 161.936066,136.260101 
	C160.658997,137.156097 159.449677,138.640091 158.087448,138.797028 
	C156.438965,138.986984 154.622971,138.163910 152.947800,137.582367 
	C150.171387,136.618530 147.449554,135.497452 144.171600,134.237732 
	C144.345230,140.632736 146.404495,143.884399 150.980515,144.806808 
	C154.461288,145.508453 158.251007,145.625748 161.752243,145.063171 
	C167.516861,144.136917 170.340851,140.491150 170.395157,135.209747 
	C170.444855,130.377640 167.942917,127.556427 162.244781,126.069679 
	C159.844666,125.443443 157.346390,125.082367 155.063263,124.172745 
	C154.135971,123.803299 153.200882,122.319351 153.145218,121.294899 
	C153.108093,120.611938 154.635529,119.219536 155.433395,119.240906 
	C157.301956,119.290939 159.883575,119.385551 160.871887,120.559975 
	C163.669342,123.884308 166.527679,122.842995 169.690720,122.032448 
	C168.460709,115.513351 167.212997,114.301483 159.083954,112.162323 
M129.409866,84.723320 
	C130.198608,86.182129 131.235367,87.561661 131.731613,89.113983 
	C133.536499,94.760017 137.228027,96.286469 142.974014,94.421623 
	C140.960327,90.533836 138.995239,86.739861 136.767410,82.438622 
	C137.846802,81.539574 139.184952,80.767532 140.061768,79.637520 
	C144.756836,73.586708 141.557419,64.186646 134.138382,63.245056 
	C128.631851,62.546192 122.965370,63.107529 117.306625,63.107529 
	C117.306625,73.946518 117.306625,84.340126 117.306625,94.716217 
	C119.702766,94.716217 121.785690,94.716217 124.407722,94.716217 
	C124.407722,91.031624 124.407722,87.627861 124.407722,83.853020 
	C126.257065,83.980370 127.540283,84.068733 129.409866,84.723320 
M129.554840,132.018661 
	C132.148132,132.018661 134.741409,132.018661 137.467468,132.018661 
	C137.467468,129.599045 137.467468,127.884094 137.467468,125.678505 
	C133.199661,125.678505 129.275574,125.678505 125.149490,125.678505 
	C125.149490,123.491257 125.149490,121.800743 125.149490,119.696953 
	C129.610001,119.696953 133.706757,119.696953 138.144043,119.696953 
	C138.144043,117.249313 138.144043,115.218941 138.144043,113.313950 
	C130.720413,113.313950 123.669617,113.313950 116.718552,113.313950 
	C116.718552,124.066628 116.718552,134.417053 116.718552,144.788055 
	C124.105301,144.788055 131.035049,144.788055 138.093109,144.788055 
	C138.093109,142.510025 138.093109,140.469604 138.093109,137.889542 
	C133.443420,137.889542 129.211487,137.889542 125.047600,137.889542 
	C124.647507,134.514923 123.816101,131.358627 129.554840,132.018661 
M17.338757,38.375229 
	C17.338757,40.820148 17.338757,43.265068 17.338757,45.661320 
	C20.229704,45.661320 22.466301,45.661320 24.391100,45.661320 
	C25.021235,41.469933 25.592297,37.671478 26.302320,32.948700 
	C32.788059,38.386532 33.488762,49.383644 44.782440,45.350994 
	C40.849857,39.579514 36.970093,33.885551 33.044605,28.124483 
	C36.772865,23.451977 40.336716,18.985521 43.973488,14.427676 
	C38.281204,12.722071 34.558701,14.480355 31.693754,18.936180 
	C29.997253,21.574732 27.757000,23.863672 24.841772,27.436808 
	C24.841772,21.977074 24.841772,18.186781 24.841772,14.217484 
	C22.307362,14.217484 20.092001,14.217484 17.338778,14.217484 
	C17.338778,22.148201 17.338778,29.778006 17.338757,38.375229 
M102.054054,94.917862 
	C106.305428,93.385414 109.447876,90.438896 109.712006,85.980202 
	C110.160225,78.413803 109.835266,70.801605 109.835266,63.115067 
	C107.302780,63.115067 105.186134,63.115067 102.555779,63.115067 
	C102.555779,65.433258 102.602066,67.561165 102.546486,69.686394 
	C102.416451,74.658348 102.556168,79.671730 101.898598,84.576088 
	C101.680397,86.203484 99.583466,88.349648 97.942818,88.803673 
	C96.226715,89.278572 93.279343,88.620689 92.220802,87.340858 
	C90.802406,85.625938 90.213951,82.860519 90.097313,80.505127 
	C89.812668,74.756607 90.004501,68.984497 90.004501,63.219776 
	C87.351303,63.219776 85.286636,63.219776 82.841866,63.219776 
	C82.841866,69.298103 82.824127,75.082451 82.845558,80.866638 
	C82.890190,92.910667 89.319565,97.858757 102.054054,94.917862 
M33.908600,85.830444 
	C34.593277,83.671036 35.002007,81.371185 36.015831,79.379303 
	C38.748249,74.010895 41.738640,68.773796 44.765400,63.230457 
	C36.921761,62.618748 36.938686,62.627655 33.788670,68.612625 
	C32.686794,70.706169 31.478973,72.743950 29.953068,75.459320 
	C27.961624,71.632706 26.327871,68.599899 24.792698,65.517990 
	C22.611788,61.139755 19.153877,63.305252 15.413945,63.236465 
	C20.330305,73.840912 28.905788,82.444336 26.026949,94.790466 
	C29.112690,94.790466 31.226706,94.790466 33.907482,94.790466 
	C33.907482,91.961655 33.907482,89.347160 33.908600,85.830444 
M102.307510,120.933411 
	C105.082710,120.324005 107.857918,119.714600 110.920685,119.042046 
	C110.920685,117.268089 110.920685,115.363167 110.920685,113.306931 
	C102.254234,113.306931 93.738075,113.306931 84.987175,113.306931 
	C85.087807,115.591812 85.171349,117.488586 85.260422,119.510857 
	C88.387619,119.685860 90.977478,119.830795 94.161354,120.008972 
	C94.161354,128.427460 94.161354,136.624588 94.161354,144.621521 
	C97.178848,144.621521 99.575066,144.621521 102.201614,144.621521 
	C102.201614,136.779785 102.201614,129.321304 102.307510,120.933411 
z"/>
<path fill="#B4BBC2" opacity="1.000000" stroke="none" 
	d="
M121.666580,13.917400 
	C123.064636,15.217994 124.499733,16.384924 124.891129,17.833801 
	C126.229355,22.787651 127.200821,27.840580 129.185410,33.072552 
	C130.877075,26.809246 132.568756,20.545938 134.304184,14.120634 
	C136.378983,14.120634 138.338165,14.120634 140.719559,14.120634 
	C142.458496,20.475330 144.221024,26.916199 146.332550,34.632462 
	C147.697662,28.722677 149.241791,24.282274 149.642731,19.740944 
	C150.157562,13.909506 153.088058,12.943137 158.546844,14.422783 
	C155.951614,24.427151 153.574753,34.517559 150.486038,44.385151 
	C150.075256,45.697506 146.050644,45.878681 143.399658,46.673672 
	C141.378998,39.709473 139.593719,33.556545 137.487823,26.298597 
	C135.769638,32.488571 134.238098,37.540195 133.000412,42.662815 
	C132.387543,45.199368 131.256592,46.144539 128.570648,46.102844 
	C125.845070,46.060535 124.515251,45.507317 123.809776,42.506042 
	C121.613503,33.162506 118.964005,23.925505 116.365730,14.180046 
	C118.337425,14.071682 119.781334,13.992325 121.666580,13.917400 
z"/>
<path fill="#689FF1" opacity="1.000000" stroke="none" 
	d="
M25.443871,136.059326 
	C25.443811,139.162537 25.443811,141.802246 25.443811,144.722534 
	C22.656752,144.722534 20.267012,144.722534 17.573719,144.722534 
	C17.573719,134.162430 17.573719,123.777420 17.573719,113.475052 
	C22.207514,111.877228 25.232166,113.259811 27.651091,117.278854 
	C30.185562,121.489876 33.297638,125.353249 37.025719,130.588013 
	C37.025719,124.029053 37.025719,118.860161 37.025719,113.316086 
	C39.987911,113.316086 42.373787,113.316086 45.043373,113.316086 
	C45.043373,123.701836 45.043373,134.108963 45.043373,144.492950 
	C40.554054,146.123642 37.581776,144.620438 35.180450,140.631653 
	C32.639839,136.411514 29.554472,132.519348 25.443928,128.592087 
	C25.443928,130.926666 25.443928,133.261246 25.443871,136.059326 
z"/>
<path fill="#B0B7BE" opacity="1.000000" stroke="none" 
	d="
M56.618271,32.407967 
	C56.617947,36.994904 56.617947,41.133499 56.617947,45.641747 
	C54.027245,45.641747 51.825397,45.641747 49.341015,45.641747 
	C49.341015,35.235565 49.341015,24.844498 49.341015,14.465528 
	C53.533218,13.047788 56.310856,14.001307 58.607391,17.819393 
	C61.487415,22.607563 65.022781,27.001553 69.164146,32.812931 
	C69.164146,25.798363 69.164146,20.147108 69.164146,14.205631 
	C72.048409,14.205631 74.258545,14.205631 76.658562,14.205631 
	C76.658562,24.839264 76.658562,35.235165 76.658562,45.540169 
	C72.368958,46.927399 69.626358,45.719616 67.367729,42.009991 
	C64.462738,37.238750 60.976501,32.821396 57.143154,27.407824 
	C56.894535,29.565189 56.756565,30.762407 56.618271,32.407967 
z"/>
<path fill="#69A0F2" opacity="1.000000" stroke="none" 
	d="
M68.637619,112.200745 
	C79.897057,113.541656 84.287163,123.044548 81.912643,134.424042 
	C80.148148,142.880066 71.868950,147.362335 62.538578,145.198853 
	C55.460533,143.557617 51.273392,137.966293 51.022125,129.820312 
	C50.759258,121.298492 54.527981,115.019867 61.368073,113.046776 
	C63.557991,112.415070 65.934319,112.429565 68.637619,112.200745 
M72.838966,123.029610 
	C70.692993,119.736290 67.926407,118.074509 64.019142,119.925323 
	C60.371834,121.653000 58.806847,126.278458 59.762188,131.661148 
	C60.443424,135.499466 62.365982,138.330093 66.371399,138.627213 
	C70.767250,138.953293 73.175987,135.968201 73.767746,132.061996 
	C74.171806,129.394745 73.386330,126.547310 72.838966,123.029610 
z"/>
<path fill="#B2B9C0" opacity="1.000000" stroke="none" 
	d="
M76.968338,80.730789 
	C75.185440,92.154419 67.881561,97.597916 57.853809,95.400162 
	C48.278297,93.301537 43.419308,83.651772 46.593735,73.038124 
	C49.242245,64.182899 58.141273,59.875904 67.226936,63.051964 
	C73.847450,65.366287 76.926155,70.806313 76.968338,80.730789 
M68.028099,72.853363 
	C66.086723,69.251945 62.675011,67.593544 59.301071,69.264961 
	C56.916954,70.446030 55.088490,73.570129 53.979721,76.230179 
	C53.172104,78.167732 53.557434,80.858978 54.097782,83.044380 
	C55.003815,86.708809 57.282360,89.108231 61.495171,89.092346 
	C65.748802,89.076302 68.118027,86.529083 68.763222,82.905121 
	C69.294044,79.923538 68.552612,76.715439 68.028099,72.853363 
z"/>
<path fill="#B3BAC1" opacity="1.000000" stroke="none" 
	d="
M108.295166,43.398773 
	C100.590637,48.226555 92.068253,47.756886 86.944008,42.489948 
	C82.021896,37.430775 81.168076,26.026451 85.234787,19.660143 
	C88.967224,13.817107 97.124008,11.465317 104.298409,14.163650 
	C114.929237,18.161964 117.215645,33.679195 108.295166,43.398773 
M100.053261,19.966970 
	C95.470055,19.254345 92.397003,20.962002 90.911858,25.476122 
	C89.262558,30.489265 90.394707,36.147224 93.689522,38.701263 
	C97.138336,41.374676 102.087708,40.426060 104.451973,36.638485 
	C107.841393,31.208607 106.242287,23.880919 100.053261,19.966970 
z"/>
<path fill="#689FF0" opacity="1.000000" stroke="none" 
	d="
M159.494812,112.208847 
	C167.212997,114.301483 168.460709,115.513351 169.690720,122.032448 
	C166.527679,122.842995 163.669342,123.884308 160.871887,120.559975 
	C159.883575,119.385551 157.301956,119.290939 155.433395,119.240906 
	C154.635529,119.219536 153.108093,120.611938 153.145218,121.294899 
	C153.200882,122.319351 154.135971,123.803299 155.063263,124.172745 
	C157.346390,125.082367 159.844666,125.443443 162.244781,126.069679 
	C167.942917,127.556427 170.444855,130.377640 170.395157,135.209747 
	C170.340851,140.491150 167.516861,144.136917 161.752243,145.063171 
	C158.251007,145.625748 154.461288,145.508453 150.980515,144.806808 
	C146.404495,143.884399 144.345230,140.632736 144.171600,134.237732 
	C147.449554,135.497452 150.171387,136.618530 152.947800,137.582367 
	C154.622971,138.163910 156.438965,138.986984 158.087448,138.797028 
	C159.449677,138.640091 160.658997,137.156097 161.936066,136.260101 
	C160.903915,135.185211 160.058731,133.668121 158.797562,133.134888 
	C156.693390,132.245239 154.307281,132.044342 152.068069,131.447617 
	C147.439606,130.214203 144.385437,127.458496 144.240768,122.422890 
	C144.109314,117.847275 147.122528,114.234459 152.216278,112.915344 
	C154.422546,112.343987 156.789810,112.394356 159.494812,112.208847 
z"/>
<path fill="#B5BCC3" opacity="1.000000" stroke="none" 
	d="
M129.116684,84.440216 
	C127.540283,84.068733 126.257065,83.980370 124.407722,83.853020 
	C124.407722,87.627861 124.407722,91.031624 124.407722,94.716217 
	C121.785690,94.716217 119.702766,94.716217 117.306625,94.716217 
	C117.306625,84.340126 117.306625,73.946518 117.306625,63.107529 
	C122.965370,63.107529 128.631851,62.546192 134.138382,63.245056 
	C141.557419,64.186646 144.756836,73.586708 140.061768,79.637520 
	C139.184952,80.767532 137.846802,81.539574 136.767410,82.438622 
	C138.995239,86.739861 140.960327,90.533836 142.974014,94.421623 
	C137.228027,96.286469 133.536499,94.760017 131.731613,89.113983 
	C131.235367,87.561661 130.198608,86.182129 129.116684,84.440216 
M134.075745,71.768250 
	C131.797592,67.380432 128.095657,69.102600 124.608513,69.219963 
	C124.608513,72.300392 124.608513,75.012688 124.608513,77.688850 
	C132.413269,78.422363 133.441269,77.857025 134.075745,71.768250 
z"/>
<path fill="#679EEE" opacity="1.000000" stroke="none" 
	d="
M129.083557,132.018890 
	C123.816101,131.358627 124.647507,134.514923 125.047600,137.889542 
	C129.211487,137.889542 133.443420,137.889542 138.093109,137.889542 
	C138.093109,140.469604 138.093109,142.510025 138.093109,144.788055 
	C131.035049,144.788055 124.105301,144.788055 116.718552,144.788055 
	C116.718552,134.417053 116.718552,124.066628 116.718552,113.313950 
	C123.669617,113.313950 130.720413,113.313950 138.144043,113.313950 
	C138.144043,115.218941 138.144043,117.249313 138.144043,119.696953 
	C133.706757,119.696953 129.610001,119.696953 125.149490,119.696953 
	C125.149490,121.800743 125.149490,123.491257 125.149490,125.678505 
	C129.275574,125.678505 133.199661,125.678505 137.467468,125.678505 
	C137.467468,127.884094 137.467468,129.599045 137.467468,132.018661 
	C134.741409,132.018661 132.148132,132.018661 129.083557,132.018890 
z"/>
<path fill="#B1B8BF" opacity="1.000000" stroke="none" 
	d="
M17.338768,37.891518 
	C17.338778,29.778006 17.338778,22.148201 17.338778,14.217484 
	C20.092001,14.217484 22.307362,14.217484 24.841772,14.217484 
	C24.841772,18.186781 24.841772,21.977074 24.841772,27.436808 
	C27.757000,23.863672 29.997253,21.574732 31.693754,18.936180 
	C34.558701,14.480355 38.281204,12.722071 43.973488,14.427676 
	C40.336716,18.985521 36.772865,23.451977 33.044605,28.124483 
	C36.970093,33.885551 40.849857,39.579514 44.782440,45.350994 
	C33.488762,49.383644 32.788059,38.386532 26.302320,32.948700 
	C25.592297,37.671478 25.021235,41.469933 24.391100,45.661320 
	C22.466301,45.661320 20.229704,45.661320 17.338757,45.661320 
	C17.338757,43.265068 17.338757,40.820148 17.338768,37.891518 
z"/>
<path fill="#B6BCC3" opacity="1.000000" stroke="none" 
	d="
M101.662743,94.993477 
	C89.319565,97.858757 82.890190,92.910667 82.845558,80.866638 
	C82.824127,75.082451 82.841866,69.298103 82.841866,63.219776 
	C85.286636,63.219776 87.351303,63.219776 90.004501,63.219776 
	C90.004501,68.984497 89.812668,74.756607 90.097313,80.505127 
	C90.213951,82.860519 90.802406,85.625938 92.220802,87.340858 
	C93.279343,88.620689 96.226715,89.278572 97.942818,88.803673 
	C99.583466,88.349648 101.680397,86.203484 101.898598,84.576088 
	C102.556168,79.671730 102.416451,74.658348 102.546486,69.686394 
	C102.602066,67.561165 102.555779,65.433258 102.555779,63.115067 
	C105.186134,63.115067 107.302780,63.115067 109.835266,63.115067 
	C109.835266,70.801605 110.160225,78.413803 109.712006,85.980202 
	C109.447876,90.438896 106.305428,93.385414 101.662743,94.993477 
z"/>
<path fill="#B2B9C0" opacity="1.000000" stroke="none" 
	d="
M33.908043,86.281555 
	C33.907482,89.347160 33.907482,91.961655 33.907482,94.790466 
	C31.226706,94.790466 29.112690,94.790466 26.026949,94.790466 
	C28.905788,82.444336 20.330305,73.840912 15.413945,63.236465 
	C19.153877,63.305252 22.611788,61.139755 24.792698,65.517990 
	C26.327871,68.599899 27.961624,71.632706 29.953068,75.459320 
	C31.478973,72.743950 32.686794,70.706169 33.788670,68.612625 
	C36.938686,62.627655 36.921761,62.618748 44.765400,63.230457 
	C41.738640,68.773796 38.748249,74.010895 36.015831,79.379303 
	C35.002007,81.371185 34.593277,83.671036 33.908043,86.281555 
z"/>
<path fill="#69A1F3" opacity="1.000000" stroke="none" 
	d="
M102.254562,121.398117 
	C102.201614,129.321304 102.201614,136.779785 102.201614,144.621521 
	C99.575066,144.621521 97.178848,144.621521 94.161354,144.621521 
	C94.161354,136.624588 94.161354,128.427460 94.161354,120.008972 
	C90.977478,119.830795 88.387619,119.685860 85.260422,119.510857 
	C85.171349,117.488586 85.087807,115.591812 84.987175,113.306931 
	C93.738075,113.306931 102.254234,113.306931 110.920685,113.306931 
	C110.920685,115.363167 110.920685,117.268089 110.920685,119.042046 
	C107.857918,119.714600 105.082710,120.324005 102.254562,121.398117 
z"/>
<path fill="#191F26" opacity="1.000000" stroke="none" 
	d="
M72.985832,123.405022 
	C73.386330,126.547310 74.171806,129.394745 73.767746,132.061996 
	C73.175987,135.968201 70.767250,138.953293 66.371399,138.627213 
	C62.365982,138.330093 60.443424,135.499466 59.762188,131.661148 
	C58.806847,126.278458 60.371834,121.653000 64.019142,119.925323 
	C67.926407,118.074509 70.692993,119.736290 72.985832,123.405022 
z"/>
<path fill="#191D23" opacity="1.000000" stroke="none" 
	d="
M68.201576,73.230545 
	C68.552612,76.715439 69.294044,79.923538 68.763222,82.905121 
	C68.118027,86.529083 65.748802,89.076302 61.495171,89.092346 
	C57.282360,89.108231 55.003815,86.708809 54.097782,83.044380 
	C53.557434,80.858978 53.172104,78.167732 53.979721,76.230179 
	C55.088490,73.570129 56.916954,70.446030 59.301071,69.264961 
	C62.675011,67.593544 66.086723,69.251945 68.201576,73.230545 
z"/>
<path fill="#1A1E24" opacity="1.000000" stroke="none" 
	d="
M100.451706,20.050297 
	C106.242287,23.880919 107.841393,31.208607 104.451973,36.638485 
	C102.087708,40.426060 97.138336,41.374676 93.689522,38.701263 
	C90.394707,36.147224 89.262558,30.489265 90.911858,25.476122 
	C92.397003,20.962002 95.470055,19.254345 100.451706,20.050297 
z"/>
<path fill="#1F2329" opacity="1.000000" stroke="none" 
	d="
M134.161682,72.183945 
	C133.441269,77.857025 132.413269,78.422363 124.608513,77.688850 
	C124.608513,75.012688 124.608513,72.300392 124.608513,69.219963 
	C128.095657,69.102600 131.797592,67.380432 134.161682,72.183945 
z"/>
</svg>